<mxfile host="app.diagrams.net" modified="2021-09-30T14:04:27.094Z" agent="5.0 (Windows NT 10.0; Win64; x64) AppleWebKit/537.36 (KHTML, like Gecko) Chrome/93.0.4577.82 Safari/537.36" etag="_G4LwcaU5uufraV7_goh" version="15.3.2" type="github">
  <diagram id="RC0JC255c9zAzuLsbYf1" name="Page-1">
    <mxGraphModel dx="3806" dy="1457" grid="1" gridSize="10" guides="1" tooltips="1" connect="1" arrows="1" fold="1" page="1" pageScale="1" pageWidth="850" pageHeight="1100" math="0" shadow="0">
      <root>
        <mxCell id="0" />
        <mxCell id="1" parent="0" />
        <mxCell id="wd3Cngt7S95CqOGwH9EE-16" style="rounded=0;orthogonalLoop=1;jettySize=auto;html=1;exitX=0.5;exitY=0.5;exitDx=0;exitDy=0;exitPerimeter=0;entryX=0;entryY=0.5;entryDx=0;entryDy=0;" edge="1" parent="1" source="wd3Cngt7S95CqOGwH9EE-1" target="wd3Cngt7S95CqOGwH9EE-7">
          <mxGeometry relative="1" as="geometry" />
        </mxCell>
        <mxCell id="wd3Cngt7S95CqOGwH9EE-17" style="edgeStyle=none;rounded=0;orthogonalLoop=1;jettySize=auto;html=1;exitX=0.5;exitY=0.5;exitDx=0;exitDy=0;exitPerimeter=0;entryX=0;entryY=0.5;entryDx=0;entryDy=0;" edge="1" parent="1" source="wd3Cngt7S95CqOGwH9EE-1" target="wd3Cngt7S95CqOGwH9EE-8">
          <mxGeometry relative="1" as="geometry" />
        </mxCell>
        <mxCell id="wd3Cngt7S95CqOGwH9EE-19" style="edgeStyle=none;rounded=0;orthogonalLoop=1;jettySize=auto;html=1;exitX=0.5;exitY=0.5;exitDx=0;exitDy=0;exitPerimeter=0;entryX=0.5;entryY=0;entryDx=0;entryDy=0;" edge="1" parent="1" source="wd3Cngt7S95CqOGwH9EE-1" target="wd3Cngt7S95CqOGwH9EE-10">
          <mxGeometry relative="1" as="geometry" />
        </mxCell>
        <mxCell id="wd3Cngt7S95CqOGwH9EE-1" value="Project Director" style="shape=umlActor;verticalLabelPosition=bottom;verticalAlign=top;html=1;" vertex="1" parent="1">
          <mxGeometry x="65" y="250" width="60" height="110" as="geometry" />
        </mxCell>
        <mxCell id="wd3Cngt7S95CqOGwH9EE-20" style="edgeStyle=none;rounded=0;orthogonalLoop=1;jettySize=auto;html=1;exitX=0.5;exitY=0.5;exitDx=0;exitDy=0;exitPerimeter=0;entryX=0;entryY=0.5;entryDx=0;entryDy=0;" edge="1" parent="1" source="wd3Cngt7S95CqOGwH9EE-2" target="wd3Cngt7S95CqOGwH9EE-9">
          <mxGeometry relative="1" as="geometry" />
        </mxCell>
        <mxCell id="wd3Cngt7S95CqOGwH9EE-21" style="edgeStyle=none;rounded=0;orthogonalLoop=1;jettySize=auto;html=1;exitX=0.5;exitY=0.5;exitDx=0;exitDy=0;exitPerimeter=0;entryX=0;entryY=0;entryDx=0;entryDy=0;" edge="1" parent="1" source="wd3Cngt7S95CqOGwH9EE-2" target="wd3Cngt7S95CqOGwH9EE-10">
          <mxGeometry relative="1" as="geometry" />
        </mxCell>
        <mxCell id="wd3Cngt7S95CqOGwH9EE-2" value="Project Manager" style="shape=umlActor;verticalLabelPosition=bottom;verticalAlign=top;html=1;" vertex="1" parent="1">
          <mxGeometry x="65" y="520" width="60" height="110" as="geometry" />
        </mxCell>
        <mxCell id="wd3Cngt7S95CqOGwH9EE-23" style="edgeStyle=none;rounded=0;orthogonalLoop=1;jettySize=auto;html=1;exitX=0.5;exitY=0.5;exitDx=0;exitDy=0;exitPerimeter=0;entryX=0;entryY=0.5;entryDx=0;entryDy=0;" edge="1" parent="1" source="wd3Cngt7S95CqOGwH9EE-3" target="wd3Cngt7S95CqOGwH9EE-10">
          <mxGeometry relative="1" as="geometry" />
        </mxCell>
        <mxCell id="wd3Cngt7S95CqOGwH9EE-3" value="Team Leader" style="shape=umlActor;verticalLabelPosition=bottom;verticalAlign=top;html=1;" vertex="1" parent="1">
          <mxGeometry x="65" y="820" width="60" height="110" as="geometry" />
        </mxCell>
        <mxCell id="wd3Cngt7S95CqOGwH9EE-5" value="JOHN RIMUEL BIGATA&lt;br&gt;IT-4C" style="rounded=1;whiteSpace=wrap;html=1;arcSize=40;fontColor=#000000;fillColor=#ffffc0;strokeColor=#ff0000;" vertex="1" parent="1">
          <mxGeometry x="20" y="20" width="150" height="40" as="geometry" />
        </mxCell>
        <mxCell id="wd3Cngt7S95CqOGwH9EE-7" value="Create Projects" style="ellipse;whiteSpace=wrap;html=1;" vertex="1" parent="1">
          <mxGeometry x="345" y="190" width="140" height="70" as="geometry" />
        </mxCell>
        <mxCell id="wd3Cngt7S95CqOGwH9EE-8" value="Create Teams" style="ellipse;whiteSpace=wrap;html=1;" vertex="1" parent="1">
          <mxGeometry x="345" y="370" width="140" height="70" as="geometry" />
        </mxCell>
        <mxCell id="wd3Cngt7S95CqOGwH9EE-9" value="Assign Tasks to Team" style="ellipse;whiteSpace=wrap;html=1;" vertex="1" parent="1">
          <mxGeometry x="345" y="550" width="140" height="70" as="geometry" />
        </mxCell>
        <mxCell id="wd3Cngt7S95CqOGwH9EE-10" value="Assign tasks to Team members" style="ellipse;whiteSpace=wrap;html=1;" vertex="1" parent="1">
          <mxGeometry x="345" y="760" width="140" height="70" as="geometry" />
        </mxCell>
        <mxCell id="wd3Cngt7S95CqOGwH9EE-12" value="Create Profile" style="ellipse;whiteSpace=wrap;html=1;" vertex="1" parent="1">
          <mxGeometry x="610" y="240" width="140" height="70" as="geometry" />
        </mxCell>
        <mxCell id="wd3Cngt7S95CqOGwH9EE-18" value="Include" style="endArrow=block;endSize=16;endFill=0;html=1;entryX=0;entryY=0.5;entryDx=0;entryDy=0;exitX=1;exitY=0.5;exitDx=0;exitDy=0;" edge="1" parent="1" source="wd3Cngt7S95CqOGwH9EE-7" target="wd3Cngt7S95CqOGwH9EE-12">
          <mxGeometry width="160" relative="1" as="geometry">
            <mxPoint x="485" y="225" as="sourcePoint" />
            <mxPoint x="645" y="225" as="targetPoint" />
          </mxGeometry>
        </mxCell>
        <mxCell id="wd3Cngt7S95CqOGwH9EE-25" value="" style="rounded=0;whiteSpace=wrap;html=1;fillColor=none;" vertex="1" parent="1">
          <mxGeometry x="230" y="140" width="555" height="840" as="geometry" />
        </mxCell>
      </root>
    </mxGraphModel>
  </diagram>
</mxfile>
